# xmcd
#
# Track frame offsets:
#	150
#	20641
#	40001
#	64152
#	87187
#	110949
#	136746
#	158989
#	182621
#	195843
#	219470
#	232437
#	259207
#
# Disc length: 3691 seconds
#
# Revision: 1
# Processed by: cddbd v1.5.2PL0 Copyright (c) Steve Scherf et al.
# Submitted via: audiograbber 1.83.01
#
DISCID=b80e690d
DTITLE=The Rolling Stones - First Lick - CD 1
DYEAR=2002
DGENRE=Rock
TTITLE0=Street Fighting Man
TTITLE1=If You Can't Rock Me
TTITLE2=It's Only Rock'n'Roll
TTITLE3=Don't Stop
TTITLE4=Stray Cat Blues
TTITLE5=Wild Horses
TTITLE6=Loving Cup
TTITLE7=Rock's Off
TTITLE8=Rip This Joint
TTITLE9=Tumbling Dice
TTITLE10=Band Introductions
TTITLE11=Slipping Away
TTITLE12=Happy
EXTD=
EXTT0=
EXTT1=
EXTT2=
EXTT3=
EXTT4=
EXTT5=
EXTT6=
EXTT7=
EXTT8=
EXTT9=
EXTT10=
EXTT11=
EXTT12=
PLAYORDER=
